<?xml version="1.0" encoding="utf-8"?>
<!-- Generator: Adobe Illustrator 18.1.0, SVG Export Plug-In . SVG Version: 6.00 Build 0)  -->
<!DOCTYPE svg PUBLIC "-//W3C//DTD SVG 1.1//EN" "http://www.w3.org/Graphics/SVG/1.1/DTD/svg11.dtd">
<svg version="1.1" id="Layer_1" xmlns="http://www.w3.org/2000/svg" xmlns:xlink="http://www.w3.org/1999/xlink" x="0px" y="0px"
	 viewBox="0 0 17 17" enable-background="new 0 0 17 17" xml:space="preserve">
<g>
	<path fill="#D12027" d="M8.5,1C12.6,1,16,4.4,16,8.5S12.6,16,8.5,16S1,12.6,1,8.5S4.4,1,8.5,1 M8.5,0C3.8,0,0,3.8,0,8.5
		S3.8,17,8.5,17S17,13.2,17,8.5S13.2,0,8.5,0L8.5,0z"/>
</g>
<g>
	<rect x="8" y="4" transform="matrix(0.7071 0.7071 -0.7071 0.7071 8.5 -3.5208)" fill="#D12027" width="1" height="9"/>
	<rect x="8" y="4" transform="matrix(0.7071 -0.7071 0.7071 0.7071 -3.5208 8.5)" fill="#D12027" width="1" height="9"/>
</g>
</svg>
